<?xml version="1.0" encoding="utf-8"?>
<!-- Generator: Adobe Illustrator 23.0.1, SVG Export Plug-In . SVG Version: 6.00 Build 0)  -->
<svg version="1.1" id="Layer_5" xmlns="http://www.w3.org/2000/svg" xmlns:xlink="http://www.w3.org/1999/xlink" x="0px" y="0px"
	 viewBox="0 0 512 512" style="enable-background:new 0 0 512 512;" xml:space="preserve">
<style type="text/css">
	.st0{fill:#FFFFFF;}
</style>
<path class="st0" d="M248,200v16h-16v80h16v16h16v-17.5c9.3-3.3,16-12.1,16-22.5c0-6.1-2.3-11.8-6.1-16c3.8-4.2,6.1-9.9,6.1-16
	c0-10.4-6.7-19.2-16-22.5V200H248z M256,280h-8v-16h8c4.4,0,8,3.6,8,8S260.4,280,256,280z M256,248h-8v-16h8c4.4,0,8,3.6,8,8
	S260.4,248,256,248z"/>
<path class="st0" d="M256,328c-39.7,0-72-32.3-72-72c0-16.6,5.8-32.8,16.3-45.6l-12.4-10.2C175.1,215.9,168,235.7,168,256
	c0,48.5,39.5,88,88,88c20.3,0,40.1-7.1,55.8-19.9l-10.1-12.4C288.8,322.2,272.6,328,256,328z"/>
<path class="st0" d="M256,168c-20.3,0-40.1,7.1-55.8,19.9l10.1,12.4c12.8-10.5,29-16.3,45.6-16.3c39.7,0,72,32.3,72,72
	c0,16.6-5.8,32.8-16.3,45.6l12.4,10.2c12.8-15.7,19.9-35.5,19.9-55.8C344,207.5,304.5,168,256,168z"/>
<path class="st0" d="M128,456c-39.7,0-72-32.3-72-72c0-16.6,5.8-32.8,16.3-45.6l-12.4-10.2C47.1,343.9,40,363.7,40,384
	c0,48.5,39.5,88,88,88c20.3,0,40.1-7.1,55.8-19.9l-10.1-12.4C160.8,450.2,144.6,456,128,456z"/>
<path class="st0" d="M504,128C504,61.8,450.2,8,384,8S264,61.8,264,128c0,2.7,0.1,5.5,0.4,8.4c-2.8-0.2-5.5-0.4-8.4-0.4
	c-20.1,0-39,5-55.7,13.8l-18-58.6c5.9-4.4,9.7-11.3,9.7-19.2c0-13.2-10.8-24-24-24s-24,10.8-24,24c0,12.9,10.2,23.4,23,23.9
	l19.3,62.6c-3.2,2.3-6.2,4.7-9.1,7.3l-69.6-69.6c2.8-4.8,4.5-10.2,4.5-16.1c0-17.6-14.4-32-32-32S48,62.4,48,80s14.4,32,32,32
	c5.9,0,11.4-1.7,16.2-4.5l69.6,69.6c-2.6,2.9-5,6-7.3,9.1L95.9,167c-0.5-12.8-11-23-23.9-23c-13.2,0-24,10.8-24,24s10.8,24,24,24
	c7.9,0,14.8-3.9,19.2-9.7l58.6,18C141,217,136,235.9,136,256c0,2.8,0.2,5.6,0.4,8.4c-2.9-0.2-5.7-0.4-8.4-0.4
	C61.8,264,8,317.8,8,384s53.8,120,120,120s120-53.8,120-120c0-2.7-0.1-5.5-0.4-8.4c2.8,0.2,5.5,0.4,8.4,0.4c20.1,0,39-5,55.7-13.8
	l18,58.6c-5.9,4.4-9.7,11.3-9.7,19.2c0,13.2,10.8,24,24,24s24-10.8,24-24c0-12.9-10.2-23.4-23-23.9l-19.3-62.6
	c3.2-2.3,6.2-4.7,9.1-7.3l69.6,69.6c-2.8,4.8-4.5,10.2-4.5,16.2c0,17.6,14.4,32,32,32s32-14.4,32-32s-14.4-32-32-32
	c-5.9,0-11.4,1.7-16.2,4.5l-69.6-69.6c2.6-2.9,5-6,7.3-9.1l62.6,19.3c0.5,12.8,11,23,23.9,23c13.2,0,24-10.8,24-24s-10.8-24-24-24
	c-7.9,0-14.8,3.9-19.2,9.7l-58.6-18C371,295,376,276.1,376,256c0-2.8-0.2-5.6-0.4-8.4c2.9,0.2,5.7,0.4,8.4,0.4
	C450.2,248,504,194.2,504,128L504,128z M160,72c0-4.4,3.6-8,8-8s8,3.6,8,8s-3.6,8-8,8S160,76.4,160,72z M72,176c-4.4,0-8-3.6-8-8
	s3.6-8,8-8s8,3.6,8,8S76.4,176,72,176z M352,440c0,4.4-3.6,8-8,8s-8-3.6-8-8s3.6-8,8-8S352,435.6,352,440z M440,336c4.4,0,8,3.6,8,8
	s-3.6,8-8,8s-8-3.6-8-8S435.6,336,440,336z M80,96c-8.8,0-16-7.2-16-16s7.2-16,16-16s16,7.2,16,16S88.8,96,80,96z M232,384
	c0,57.3-46.7,104-104,104S24,441.3,24,384s46.7-104,104-104c3.3,0,6.9,0.3,10.6,0.7c1.2,5.8,3,11.5,5,17c-25.1-4.4-51.6,2-71.4,18.2
	l10.1,12.4c19.3-15.8,46.5-20.4,70.1-11.8c10.4,17.8,25.3,32.6,43.1,43c2.9,7.9,4.4,16.1,4.4,24.5c0,16.6-5.8,32.8-16.3,45.6
	l12.4,10.2c12.8-15.7,19.9-35.5,19.9-55.8c0-5.2-0.5-10.4-1.4-15.5c5.4,2,11,3.7,16.7,4.9C231.7,377.1,232,380.7,232,384L232,384z
	 M256,360c-57.3,0-104-46.7-104-104s46.7-104,104-104s104,46.7,104,104S313.3,360,256,360z M432,416c8.8,0,16,7.2,16,16
	s-7.2,16-16,16s-16-7.2-16-16S423.2,416,432,416z M368.5,214.6c5.1,0.9,10.3,1.4,15.5,1.4c20.3,0,40.1-7.1,55.8-19.9l-10.1-12.4
	c-19.3,15.8-46.5,20.4-70.1,11.8c-6-10.2-13.5-19.5-22.2-27.5h93.5l11.2-67.2l-36.2,10.3L384,93.7l-21.8,17.4L326,100.8l11.2,67.1
	c-6.4-5.9-13.3-11-20.8-15.4c-2.9-7.9-4.4-16.1-4.4-24.5c0-16.6,5.8-32.8,16.3-45.6l-12.4-10.2C303.1,87.9,296,107.7,296,128
	c0,5.2,0.5,10.4,1.4,15.5c-5.4-2-11-3.7-16.7-4.9c-0.4-3.7-0.7-7.3-0.7-10.6c0-57.3,46.7-104,104-104s104,46.7,104,104
	s-46.7,104-104,104c-3.3,0-6.9-0.3-10.6-0.7C372.2,225.5,370.5,220,368.5,214.6L368.5,214.6z M346,123.2l19.8,5.7l18.2-14.6
	l18.2,14.6l19.8-5.7l-4.8,28.8h-66.5L346,123.2z"/>
<path class="st0" d="M472,128c0-48.5-39.5-88-88-88c-20.3,0-40.1,7.1-55.8,19.9l10.1,12.4C351.2,61.8,367.4,56,384,56
	c39.7,0,72,32.3,72,72c0,16.6-5.8,32.8-16.3,45.6l12.4,10.2C464.9,168.1,472,148.3,472,128L472,128z"/>
<path class="st0" d="M128,453.3l58-77.3l-30-40h-56l-30,40L128,453.3z M136,384h24l-24,32V384z M144,368l8-10.7l8,10.7H144z
	 M128,362.7l-8-10.7h16L128,362.7z M112,368H96l8-10.7L112,368z M120,384v32l-24-32H120z"/>
</svg>
