<?xml version="1.0" encoding="utf-8"?>
<!-- Generator: Adobe Illustrator 23.0.1, SVG Export Plug-In . SVG Version: 6.00 Build 0)  -->
<svg version="1.1" id="Layer_1" xmlns="http://www.w3.org/2000/svg" xmlns:xlink="http://www.w3.org/1999/xlink" x="0px" y="0px"
	 viewBox="0 0 512 512" style="enable-background:new 0 0 512 512;" xml:space="preserve">
<style type="text/css">
	.st0{fill:#FFFFFF;}
</style>
<g>
	<path class="st0" d="M352,160c-14.8,0-29.6,2.1-43.8,6.4C292.9,98.7,232.3,48,160,48C76.2,48,8,116.2,8,200s68.2,152,152,152
		c14.8,0,29.5-2.2,43.7-6.4C219.4,414.8,281,464,352,464c83.8,0,152-68.2,152-152S435.8,160,352,160z M160,336c-75,0-136-61-136-136
		S85,64,160,64s136,61,136,136S235,336,160,336z M311.1,216.4c12.9-5.5,26.8-8.4,40.9-8.4c57.4,0,104,46.6,104,104
		s-46.6,104-104,104c-53,0-97.6-39.9-103.4-92.6C283.7,298.2,306.4,259.3,311.1,216.4z M352,448c-64.3,0-119.8-45-133.1-107.9
		c5.1-2.2,10.1-4.6,14.9-7.3c9.9,56.5,59.6,99.2,118.2,99.2c66.3,0,120-53.8,119.9-120.1S418.1,192,351.9,192
		c-13.6,0-27.1,2.3-39.9,6.8c0-5.5-0.4-11-1-16.5c13.3-4.2,27.1-6.3,41-6.3c75,0,136,61,136,136S427,448,352,448z"/>
	<path class="st0" d="M160,80C93.7,80,40,133.7,40,200s53.7,120,120,120s120-53.7,120-120C279.9,133.8,226.2,80.1,160,80z M160,304
		c-57.4,0-104-46.6-104-104S102.6,96,160,96s104,46.6,104,104C263.9,257.4,217.4,303.9,160,304z"/>
	<path class="st0" d="M188.9,195.8c6.5-11.5,2.4-26.2-9.1-32.7c-1.2-0.7-2.5-1.3-3.8-1.7V161c0-4.4-3.6-8-8.1-7.9
		c-4,0-7.3,3-7.9,6.9H152v-8c0-4.4-3.6-8-8-8s-8,3.6-8,8v8h-8c-4.4,0-8,3.6-8,8s3.6,8,8,8v48c-4.4,0-8,3.6-8,8s3.6,8,8,8h8v8
		c0,4.4,3.6,8,8,8s8-3.6,8-8v-8h8c0,4.4,3.6,8,8,8s8-3.6,8-8c13.2,0,24-10.7,24-24C200,207.8,195.8,200.2,188.9,195.8z M144,176h24
		c4.4,0,8,3.6,8,8s-3.6,8-8,8h-24V176z M176,224h-32v-16h32c4.4,0,8,3.6,8,8S180.4,224,176,224z"/>
	<path class="st0" d="M384,328c0,13.2-10.8,24-24,24c0,4.4-3.6,8-8,8s-8-3.6-8-8h-8c-4.4,0-8-3.6-8-8s3.6-8,8-8h24c4.4,0,8-3.6,8-8
		s-3.6-8-8-8h-8c-13.3,0-24-10.8-24-24c0-10.2,6.4-19.2,16-22.6V273c0-4.4,3.6-8,8.1-7.9c4,0,7.3,3,7.9,6.9h8.1c4.4,0,8,3.6,8,8
		s-3.6,8-8,8h-16c-4.4,0-8,3.6-8,8s3.6,8,8,8h8C373.2,304,384,314.7,384,328C384,328,384,328,384,328z"/>
	<path class="st0" d="M304,112h48v32c0,4.4,3.6,8,8,8s8-3.6,8-8v-40c0-4.4-3.6-8-8-8h-56c-4.4,0-8,3.6-8,8S299.6,112,304,112z"/>
	<path class="st0" d="M216,416h-48v-32c0-4.4-3.6-8-8-8s-8,3.6-8,8v40c0,4.4,3.6,8,8,8h56c4.4,0,8-3.6,8-8S220.4,416,216,416z"/>
</g>
</svg>
