<svg xmlns="http://www.w3.org/2000/svg" viewBox="0 0 60 60" width="60" height="60">
	<style>
		tspan { white-space:pre }
		.shp0 { fill: #ffffff } 
	</style>
	<g id="Blockchain">
		<path id="Layer" fill-rule="evenodd" class="shp0" d="M53 25.58L53 34.42L59.5 38.13C59.58 38.18 59.65 38.23 59.71 38.29C59.77 38.35 59.82 38.42 59.87 38.5C59.91 38.57 59.94 38.66 59.97 38.74C59.99 38.83 60 38.91 60 39L60 47C60 47.09 59.99 47.17 59.96 47.26C59.94 47.34 59.91 47.42 59.86 47.5C59.82 47.58 59.77 47.65 59.7 47.71C59.64 47.77 59.57 47.82 59.5 47.86L52.5 51.86C52.42 51.91 52.34 51.94 52.26 51.96C52.17 51.99 52.09 52 52 52C51.91 52 51.83 51.99 51.74 51.96C51.66 51.94 51.58 51.91 51.5 51.86L45.02 48.16L38 52.55L38 55C38 55.09 37.99 55.18 37.96 55.26C37.94 55.35 37.91 55.43 37.86 55.5C37.82 55.58 37.76 55.65 37.7 55.71C37.64 55.77 37.57 55.82 37.49 55.87L30.49 59.87C30.42 59.91 30.34 59.94 30.25 59.97C30.17 59.99 30.08 60 30 60C29.91 60 29.82 59.99 29.74 59.97C29.66 59.94 29.58 59.91 29.5 59.87L22.5 55.87C22.42 55.82 22.35 55.77 22.29 55.71C22.23 55.65 22.18 55.58 22.13 55.5C22.09 55.43 22.06 55.34 22.03 55.26C22.01 55.17 22 55.09 22 55L22 52.55L14.97 48.17L8.49 51.87C8.42 51.91 8.34 51.94 8.25 51.97C8.17 51.99 8.08 52 8 52C7.91 52 7.82 51.99 7.74 51.97C7.66 51.94 7.58 51.91 7.5 51.87L0.5 47.87C0.42 47.82 0.35 47.77 0.29 47.71C0.23 47.65 0.18 47.58 0.13 47.5C0.09 47.43 0.06 47.34 0.03 47.26C0.01 47.17 0 47.09 0 47L0 39C0 38.91 0.01 38.83 0.03 38.74C0.06 38.66 0.09 38.57 0.13 38.5C0.18 38.42 0.23 38.35 0.29 38.29C0.35 38.23 0.42 38.18 0.5 38.13L7 34.42L7 25.58L0.5 21.87C0.42 21.82 0.35 21.77 0.29 21.71C0.23 21.65 0.18 21.58 0.13 21.5C0.09 21.43 0.06 21.34 0.03 21.26C0.01 21.17 0 21.09 0 21L0 13C0 12.91 0.01 12.82 0.04 12.74C0.06 12.65 0.09 12.57 0.14 12.5C0.18 12.42 0.24 12.35 0.3 12.29C0.36 12.23 0.43 12.18 0.51 12.13L7.51 8.13C7.58 8.09 7.66 8.06 7.75 8.03C7.83 8.01 7.92 8 8 8C8.09 8 8.18 8.01 8.26 8.03C8.34 8.06 8.42 8.09 8.5 8.13L15.5 12.13C15.58 12.18 15.65 12.23 15.71 12.29C15.77 12.35 15.82 12.42 15.87 12.5C15.91 12.57 15.94 12.66 15.97 12.74C15.99 12.83 16 12.91 16 13L16 15.38L22 12.38L22 5C22 4.91 22.01 4.82 22.04 4.74C22.06 4.65 22.09 4.57 22.14 4.5C22.18 4.42 22.24 4.35 22.3 4.29C22.36 4.23 22.43 4.18 22.51 4.13L29.51 0.13C29.58 0.09 29.66 0.06 29.75 0.03C29.83 0.01 29.92 0 30 0C30.09 0 30.18 0.01 30.26 0.03C30.34 0.06 30.42 0.09 30.5 0.13L37.5 4.13C37.58 4.18 37.65 4.23 37.71 4.29C37.77 4.35 37.82 4.42 37.87 4.5C37.91 4.57 37.94 4.66 37.97 4.74C37.99 4.83 38 4.91 38 5L38 12.38L44 15.38L44 13C44 12.91 44.01 12.82 44.04 12.74C44.06 12.65 44.09 12.57 44.14 12.5C44.18 12.42 44.24 12.35 44.3 12.29C44.36 12.23 44.43 12.18 44.51 12.13L51.51 8.13C51.58 8.09 51.66 8.06 51.75 8.03C51.83 8.01 51.92 8 52 8C52.09 8 52.18 8.01 52.26 8.03C52.34 8.06 52.42 8.09 52.5 8.13L59.5 12.13C59.58 12.18 59.65 12.23 59.71 12.29C59.77 12.35 59.82 12.42 59.87 12.5C59.91 12.57 59.94 12.66 59.97 12.74C59.99 12.83 60 12.91 60 13L60 21C60 21.09 59.99 21.17 59.97 21.26C59.94 21.34 59.91 21.43 59.87 21.5C59.82 21.58 59.77 21.65 59.71 21.71C59.65 21.77 59.58 21.82 59.5 21.87L53 25.58ZM58 20.42L58 14.72L53 17.58L53 23.28L58 20.42ZM56.98 39L52 36.15L47.01 39L52 41.85L56.98 39ZM37.5 46.13C37.58 46.18 37.65 46.23 37.71 46.29C37.77 46.35 37.82 46.42 37.87 46.5C37.91 46.57 37.94 46.66 37.97 46.74C37.99 46.83 38 46.91 38 47L38 50.2L44 46.44L44 39C44 38.91 44.01 38.83 44.03 38.74C44.06 38.66 44.09 38.57 44.13 38.5C44.18 38.42 44.23 38.35 44.29 38.29C44.35 38.23 44.42 38.18 44.5 38.13L51 34.42L51 25.58L44.5 21.87C44.42 21.82 44.35 21.77 44.29 21.71C44.23 21.65 44.18 21.58 44.13 21.5C44.09 21.43 44.06 21.34 44.03 21.26C44.01 21.17 44 21.09 44 21L44 17.62L37.03 14.13L31 17.58L31 21.42L37.5 25.13C37.58 25.18 37.65 25.23 37.71 25.29C37.77 25.35 37.82 25.42 37.87 25.5C37.91 25.57 37.94 25.66 37.97 25.74C37.99 25.83 38 25.91 38 26L38 34C38 34.09 37.99 34.17 37.97 34.26C37.94 34.34 37.91 34.43 37.87 34.5C37.82 34.58 37.77 34.65 37.71 34.71C37.65 34.77 37.58 34.82 37.5 34.87L31 38.58L31 42.42C31 42.42 37.5 46.13 37.5 46.13ZM47.01 13L52 15.85L56.98 13L52 10.15L47.01 13ZM34.98 47L30 44.15L25.01 47L30 49.85L34.98 47ZM22 50.2L22 47C22 46.91 22.01 46.83 22.03 46.74C22.06 46.66 22.09 46.57 22.13 46.5C22.18 46.42 22.23 46.35 22.29 46.29C22.35 46.23 22.42 46.18 22.5 46.13L29 42.42L29 38.58L22.5 34.87C22.42 34.82 22.35 34.77 22.29 34.71C22.23 34.65 22.18 34.58 22.13 34.5C22.09 34.43 22.06 34.34 22.03 34.26C22.01 34.17 22 34.09 22 34L22 26C22 25.91 22.01 25.83 22.03 25.74C22.06 25.66 22.09 25.57 22.13 25.5C22.18 25.42 22.23 25.35 22.29 25.29C22.35 25.23 22.42 25.18 22.5 25.13L29 21.42L29 17.58L22.97 14.13L16 17.62L16 21C16 21.09 15.99 21.17 15.97 21.26C15.94 21.34 15.91 21.43 15.87 21.5C15.82 21.58 15.77 21.65 15.71 21.71C15.65 21.77 15.58 21.82 15.5 21.87L9 25.58L9 34.42L15.5 38.13C15.58 38.18 15.65 38.23 15.71 38.29C15.77 38.35 15.82 38.42 15.87 38.5C15.91 38.57 15.94 38.66 15.97 38.74C15.99 38.83 16 38.91 16 39L16 46.44L22 50.2ZM31 36.28L36 33.42L36 27.72L31 30.58L31 36.28ZM34.98 26L30 23.15L25.01 26L30 28.85L34.98 26ZM24 12.42L29 15.28L29 9.58L24 6.72L24 12.42ZM31 15.28L36 12.42L36 6.72L31 9.58L31 15.28ZM25.01 5L30 7.85L34.98 5L30 2.15L25.01 5ZM9 23.28L14 20.42L14 14.72L9 17.58L9 23.28ZM3.01 13L8 15.85L12.98 13L8 10.15L3.01 13ZM2 20.42L7 23.28L7 17.58L2 14.72L2 20.42ZM12.98 39L8 36.15L3.01 39L8 41.85L12.98 39ZM2 46.42L7 49.28L7 43.58L2 40.72L2 46.42ZM14 46.42L14 40.72L9 43.58L9 49.28L14 46.42ZM24 33.42L29 36.28L29 30.58L24 27.72L24 33.42ZM24 54.42L29 57.28L29 51.58L24 48.72L24 54.42ZM36 54.42L36 48.72L31 51.58L31 57.28L36 54.42ZM46 20.42L51 23.28L51 17.58L46 14.72L46 20.42ZM46 46.42L51 49.28L51 43.58L46 40.72L46 46.42ZM58 46.42L58 40.72L53 43.58L53 49.28L58 46.42Z" />
	</g>
</svg>