<?xml version="1.0" encoding="utf-8"?>
<!-- Generator: Adobe Illustrator 23.0.1, SVG Export Plug-In . SVG Version: 6.00 Build 0)  -->
<svg version="1.1" id="line_Icons" xmlns="http://www.w3.org/2000/svg" xmlns:xlink="http://www.w3.org/1999/xlink" x="0px" y="0px"
	 viewBox="0 0 512 512" style="enable-background:new 0 0 512 512;" xml:space="preserve">
<style type="text/css">
	.st0{fill:#FFFFFF;}
</style>
<path class="st0" d="M468,317H194.3c-8.2,0-14.9-6.7-14.9-14.9V195c0-3.8,3.1-6.9,6.9-6.9s6.9,3.1,6.9,6.9v107
	c0,0.6,0.5,1.1,1.1,1.1c0,0,0,0,0,0H468c0.6,0,1.1-0.5,1.1-1.1c0,0,0,0,0,0V113.6H193.2v40c0,3.8-3.1,6.9-6.9,6.9s-6.9-3.1-6.9-6.9
	v-46.9c0-3.8,3.1-6.9,6.9-6.9H476c3.8,0,6.9,3.1,6.9,6.9V302C482.9,310.3,476.3,316.9,468,317z"/>
<path class="st0" d="M102.4,138.6c-26.4,0-47.8-21.4-47.8-47.9S76,42.9,102.4,42.9c26.4,0,47.8,21.4,47.8,47.9
	C150.2,117.1,128.8,138.6,102.4,138.6z M102.4,56.7c-18.8,0-34,15.2-34,34c0,18.8,15.2,34,34,34c18.8,0,34-15.2,34-34
	C136.4,72,121.2,56.8,102.4,56.7z"/>
<path class="st0" d="M79.2,469.1c-16.8,0-30.4-13.5-30.4-30.2V291.9c0-3.8,3.1-6.9,6.9-6.9c3.8,0,6.9,3.1,6.9,6.9v147
	c0.1,9.1,7.5,16.5,16.7,16.4c0.3,0,0.6,0,1,0c4.7-0.4,9-2.8,11.8-6.7c1.7-2.6,2.7-5.6,2.9-8.7c0.4-4,0.6-8.1,0.6-12.1v-111
	c0-3.8,3.1-6.9,6.9-6.9c3.8,0,6.9,3.1,6.9,6.9v111c0,4.5-0.2,9-0.6,13.4c-0.4,5.6-2.3,11-5.5,15.6c-5.2,7.2-13.3,11.7-22.1,12.4
	C80.5,469.1,79.9,469.1,79.2,469.1z"/>
<path class="st0" d="M125.6,469.1c-0.6,0-1.2,0-1.9-0.1c-8.9-0.6-17-5.1-22.1-12.3c-3.2-4.6-5.1-10-5.5-15.6
	c-0.4-4.4-0.6-9-0.6-13.4v-111c0-3.8,3.1-6.9,6.9-6.9c3.8,0,6.9,3.1,6.9,6.9v111c0,4,0.2,8.1,0.6,12.1c0.2,3.1,1.2,6.1,2.9,8.7
	c2.7,3.9,7.1,6.3,11.8,6.7c9.1,0.6,17-6.4,17.5-15.5c0-0.3,0-0.6,0-0.9v-231c0-11,8.9-19.8,19.8-19.8h66.5c3.7,0,7.2-1.5,9.8-4
	c2.6-2.6,4-6.1,4-9.7c0-7.6-6.1-13.8-13.7-13.8c0,0,0,0,0,0H64.1c-20.1,0-36.4,16.3-36.4,36.4v97.6c0,5.9,4.8,10.6,10.7,10.5
	c5.6,0.2,10.3-4.2,10.5-9.8c0-0.1,0-0.1,0-0.2v-86.5c0-3.8,3.1-6.9,6.9-6.9c3.8,0,6.9,3.1,6.9,6.9V295c0,13.2-10.7,23.9-23.9,23.9
	C25.2,319,14,308.2,13.8,294.6c0-0.1,0-0.1,0-0.2v-97.6c0-27.7,22.5-50.2,50.2-50.2h164.4c15.3,0,27.6,12.4,27.6,27.6
	c0,15.3-12.4,27.6-27.6,27.6H162c-3.3,0-6,2.7-6,6v231C155.9,455.6,142.3,469.1,125.6,469.1z"/>
<path class="st0" d="M491.2,113.6H171.1c-3.8,0-6.9-3.1-6.9-6.9c0-3.8,3.1-6.9,6.9-6.9h320.1c3.8,0,6.9,3.1,6.9,6.9
	C498.2,110.5,495.1,113.6,491.2,113.6z"/>
<path class="st0" d="M491.2,317H171.1c-3.8,0-6.9-3.1-6.9-6.9c0-3.8,3.1-6.9,6.9-6.9h320.1c3.8,0,6.9,3.1,6.9,6.9
	C498.2,313.9,495.1,317,491.2,317z"/>
<path class="st0" d="M449.1,461.1h-42.3c-2,0-3.9-0.9-5.2-2.4l-70.4-81.6l-70.4,81.6c-1.3,1.5-3.2,2.4-5.2,2.4h-42.2
	c-3.8,0-6.9-3.1-6.9-6.9c0-1.7,0.6-3.3,1.7-4.6l88.5-101V310c0-3.8,3.1-6.9,6.9-6.9H359c3.8,0,6.9,3.1,6.9,6.9v38.1l88.4,101.5
	c2.5,2.9,2.2,7.3-0.7,9.8C452.4,460.4,450.8,461,449.1,461.1L449.1,461.1z M410,447.2h23.9l-80.2-92c-1.1-1.3-1.7-2.9-1.7-4.5V317
	h-41.7v34.2c0,1.7-0.6,3.3-1.7,4.6l-80.1,91.5h23.8l73.6-85.2c2.7-2.9,7.2-3.1,10.1-0.4c0.1,0.1,0.2,0.2,0.4,0.4L410,447.2z"/>
</svg>
