<?xml version="1.0" encoding="utf-8"?>
<!-- Generator: Adobe Illustrator 23.0.1, SVG Export Plug-In . SVG Version: 6.00 Build 0)  -->
<svg version="1.1" id="Capa_1" xmlns="http://www.w3.org/2000/svg" xmlns:xlink="http://www.w3.org/1999/xlink" x="0px" y="0px"
	 viewBox="0 0 512 512" style="enable-background:new 0 0 512 512;" xml:space="preserve">
<style type="text/css">
	.st0{fill:#FFFFFF;}
</style>
<g>
	<g>
		<path class="st0" d="M335,137.8H89.8c-4.2,0-7.5,3.4-7.5,7.5s3.4,7.5,7.5,7.5H335c4.2,0,7.5-3.4,7.5-7.5S339.1,137.8,335,137.8
			L335,137.8z"/>
		<path class="st0" d="M89.8,100.6h122.6c4.2,0,7.5-3.4,7.5-7.5s-3.4-7.5-7.5-7.5H89.8c-4.2,0-7.5,3.4-7.5,7.5
			C82.2,97.3,85.6,100.6,89.8,100.6z"/>
		<path class="st0" d="M335,184.1H89.8c-4.2,0-7.5,3.4-7.5,7.5s3.4,7.5,7.5,7.5H335c4.2,0,7.5-3.4,7.5-7.5
			C342.5,187.5,339.1,184.1,335,184.1L335,184.1z"/>
		<path class="st0" d="M145.6,459.7H67.2c-12.9,0-23.4-10.5-23.4-23.4V38.4c0-12.9,10.5-23.4,23.4-23.4h226.1c0.7,0,1.4,0.1,2.2,0.2
			v47c0,21.2,17.2,38.4,38.4,38.4h47c0.1,0.7,0.2,1.4,0.2,2.2V231c0,4.2,3.4,7.5,7.5,7.5s7.5-3.4,7.5-7.5V102.8
			c0-8.3-3.2-16-9.1-21.9L315.1,9.1C309.2,3.2,301.5,0,293.2,0H67.2C46,0,28.7,17.2,28.7,38.4v397.9c0,21.2,17.2,38.4,38.4,38.4
			h78.5c4.2,0,7.5-3.4,7.5-7.5S149.8,459.7,145.6,459.7L145.6,459.7z M370.3,85.6h-36.5c-12.9,0-23.4-10.5-23.4-23.4V25.7
			L370.3,85.6z"/>
		<path class="st0" d="M481,368.7L417.1,261c-4.7-7.9-14.8-10.4-22.6-5.8l-15.5,9.2c-12,7.1-17.1,21.6-13,34.4
			c-5.2,1.9-11,1.9-16.2-0.2c-12.3-3.9-21.6-11.6-37-7.7c-26.1,6.7-25.3,6.3-27.7,7.1c-15.3-8.7-24.5-11.3-40.7-5l-14.5,5.6
			c-6.7,2.6-14.1,2-20.3-1.7l-4-2.3c1.9-11.6-3.2-23.7-14-30.2c0,0,0,0,0,0l-15.5-9.2c-7.8-4.6-18-2-22.6,5.8L89.6,368.7
			c-4.7,7.9-2.1,18,5.8,22.6l15.5,9.2c4.7,2.8,9.9,4.1,15,4.1c5.7,0,11.3-1.6,16.1-4.8l3.2,1.9l-6.8,9.5
			c-8.1,11.3-5.6,27.1,5.8,35.2c5.2,3.8,11.8,5.5,18.6,4.4c1.1,6.3,4.5,12.2,10.1,16.3c5.3,3.8,11.8,5.5,18.6,4.4
			c1.1,6.3,4.5,12.2,10.1,16.2c7.5,5.4,16.9,6,24.7,2.7c1.7,4.4,4.7,8.4,8.8,11.4c10.8,7.8,25.7,5.7,34.1-4.3l18.1,10.8
			c12,7.1,27.5,3.2,34.6-8.9c1.8-3.1,2.9-6.4,3.4-9.9l0,0c12,7.1,27.5,3.1,34.6-8.9c2.1-3.5,3.2-7.2,3.5-11
			c10.6,2.7,22.1-1.8,27.9-11.6c1.9-3.2,3-6.7,3.4-10.2c11.3,4.4,24.6,0.1,30.9-10.6c3.4-5.8,4.4-12.6,2.7-19.1
			c-1-3.7-2.7-7.1-5.1-10l10-5.8c8.5,3.5,18.1,2.9,26.2-1.9l15.5-9.2C483,386.7,485.6,376.6,481,368.7L481,368.7z M118.6,387.6
			l-15.5-9.2c-0.7-0.4-0.9-1.3-0.5-2l63.8-107.7c0.4-0.7,1.3-0.9,2-0.5l15.5,9.2c6.9,4.1,9.1,12.9,5,19.7l-50.6,85.5
			C134.3,389.4,125.4,391.6,118.6,387.6L118.6,387.6z M152.9,434.3c-4.6-3.3-5.6-9.6-2.3-14.2l10-14c3.2-4.5,9.6-5.7,14.2-2.3
			c4.6,3.3,5.6,9.7,2.3,14.2l-10,14C163.9,436.6,157.5,437.6,152.9,434.3z M181.7,455c-4.6-3.3-5.6-9.7-2.3-14.2l10-14c0,0,0,0,0,0
			c0,0,0,0,0,0l11.1-15.4c1.6-2.2,3.9-3.7,6.6-4.1c0.6-0.1,1.1-0.1,1.7-0.1c2.1,0,4.2,0.7,5.9,1.9c2.2,1.6,3.7,3.9,4.1,6.6
			c0.4,2.7-0.2,5.4-1.8,7.6L196,452.7C192.7,457.3,186.3,458.3,181.7,455z M210.5,475.7c-4.6-3.3-5.6-9.7-2.3-14.2c0,0,0,0,0,0
			l21.1-29.4c3.3-4.6,9.7-5.6,14.2-2.3c4.6,3.3,5.6,9.7,2.3,14.2l-9.4,13.1c0,0,0,0,0,0l-11.7,16.3
			C221.5,477.9,215.1,479,210.5,475.7L210.5,475.7z M244,489.8c-4.6-3.3-5.6-9.6-2.3-14.2l7-9.8c3.3-4.6,9.7-5.6,14.2-2.3
			c4.6,3.3,5.6,9.7,2.3,14.2l-7,9.8C255,492,248.6,493.1,244,489.8z M412.9,429.7c-2.9,4.8-9.1,6.4-14,3.6
			c-8.2-4.9-61-36.2-66.7-39.5c-3.6-2.1-8.2-0.9-10.3,2.6s-0.9,8.2,2.6,10.3l50.4,29.9l0,0c4.8,2.9,6.5,9.1,3.6,14
			c-2.9,4.8-9.1,6.4-14,3.6c-18.6-11-33.8-20-50.4-29.9c-3.6-2.1-8.2-0.9-10.3,2.6s-0.9,8.2,2.6,10.3l37.1,22l0,0
			c4.8,2.9,6.4,9.1,3.6,14c-2.9,4.8-9.1,6.4-14,3.6L313.3,465c0,0,0,0,0,0c0,0,0,0,0,0l-14.5-8.6c-3.6-2.1-8.2-0.9-10.3,2.6
			c-2.1,3.6-0.9,8.2,2.6,10.3l14.5,8.6c0,0,0,0,0,0c4.8,2.9,6.5,9.1,3.6,14c-2.9,4.8-9.1,6.4-14,3.6l-17-10.1
			c7.3-11.2,4.5-26.4-6.5-34.2c-3.2-2.3-6.8-3.8-10.5-4.4c3.9-10.4,0.5-22.6-8.9-29.4c-5.6-4-12.3-5.4-18.6-4.4
			c-1.1-6.6-4.7-12.4-10.2-16.3c-10.2-7.3-24.1-5.9-32.7,2.8c-1.7-3.1-4.1-5.8-7.2-8c-8.5-6.1-19.5-6.2-27.9-1l-3.5-2l47.4-80
			l2.3,1.3c10,5.9,22.1,7.1,33.4,2.8l14.5-5.6c8.3-3.2,12.9-3.4,21,0.5c-5.4,6-8.5,13.9-8.5,22.5v33.4c0,8.9,7.2,16.1,16.1,16.1h0
			c8.9,0,17.3-3.5,23.5-9.7c3.7-3.7,6.4-8,8-12.8c9.7,5.8,90.1,53.3,99.4,58.9c2.3,1.4,4,3.6,4.7,6.2
			C414.6,424.7,414.2,427.4,412.9,429.7L412.9,429.7z M467.5,378.4l-15.5,9.2c-6.8,4-15.7,1.8-19.7-5l-23.7-40.1
			c-2.1-3.6-6.7-4.8-10.3-2.6c-3.6,2.1-4.8,6.7-2.6,10.3l23.7,40.1c0.4,0.8,0.9,1.5,1.4,2.2l-6.6,3.9c-1.3,0.8-2.6,1.7-3.8,2.6
			L308,338.3c-5-3-11.4,0.6-11.4,6.5c-0.1,0.5,0.8,8.2-5.3,14.3c-3.4,3.4-8,5.3-12.9,5.3c0,0,0,0,0,0c-0.6,0-1-0.5-1-1V330
			c0-8.7,6-16.1,14.1-18.1l25-6.3c9.1-2.3,14.2,2.6,27.8,7.2c9.4,3.6,19.7,3.4,28.8-0.5l4.5,7.7c2.1,3.6,6.7,4.8,10.3,2.6
			c3.6-2.1,4.8-6.7,2.6-10.3l-9-15.1c-4.1-6.8-1.8-15.6,5-19.7l15.5-9.2c0.7-0.4,1.6-0.2,2,0.5L468,376.4
			C468.4,377.1,468.2,378,467.5,378.4L467.5,378.4z"/>
	</g>
</g>
</svg>
